<?xml version="1.0" encoding="utf-8"?>
<!-- Generator: Adobe Illustrator 22.1.0, SVG Export Plug-In . SVG Version: 6.00 Build 0)  -->
<svg version="1.1" id="Camada_1" xmlns="http://www.w3.org/2000/svg" xmlns:xlink="http://www.w3.org/1999/xlink" x="0px" y="0px"
	 viewBox="0 0 2364 1426" style="enable-background:new 0 0 2364 1426;" xml:space="preserve">
<style type="text/css">
	.st0{fill:#5FCAE4;}
	.st1{fill:#192D40;}
	.st2{fill:#E9E8E8;}
	.st3{fill:#EE2D3E;}
	.st4{fill:#514642;}
	.st5{fill:#72635E;}
	.st6{font-family:'BigJohnPRO-Bold';}
	.st7{font-size:57.3865px;}
	.st8{font-family:'BigJohnPRO-Light';}
	.st9{font-size:32.1732px;}
</style>
<g>
	<g>
		<circle class="st0" cx="597.6" cy="663.2" r="17.6"/>
		<circle class="st1" cx="555.8" cy="600.1" r="14.6"/>
		<circle class="st2" cx="573.6" cy="609.8" r="17.6"/>
		<circle class="st3" cx="537.2" cy="614.5" r="18.8"/>
		<circle class="st1" cx="537.4" cy="637.8" r="20.1"/>
		<circle class="st2" cx="528.8" cy="672.5" r="11.6"/>
		<circle class="st1" cx="591.7" cy="687.1" r="14.6"/>
		<circle class="st3" cx="587.5" cy="624.4" r="14.6"/>
		<circle class="st1" cx="592.7" cy="644.7" r="12.7"/>
		<circle class="st0" cx="547.6" cy="668.5" r="15.6"/>
		<circle class="st2" cx="572.9" cy="636.4" r="14"/>
		<circle class="st3" cx="557.4" cy="646.9" r="11.4"/>
		<circle class="st1" cx="537.4" cy="653" r="13.1"/>
		<circle class="st0" cx="526" cy="655.8" r="13.1"/>
		<circle class="st2" cx="543.5" cy="636.3" r="10.6"/>
		<circle class="st0" cx="559.1" cy="622.2" r="15.6"/>
		<circle class="st2" cx="572.5" cy="668.6" r="22"/>
		<circle class="st1" cx="546" cy="690.6" r="20.1"/>
		<circle class="st3" cx="571.4" cy="698.4" r="15.6"/>
		<circle class="st1" cx="454.5" cy="605" r="14.6"/>
		<circle class="st0" cx="505" cy="624.4" r="17.6"/>
		<circle class="st2" cx="472.3" cy="614.7" r="17.6"/>
		<circle class="st2" cx="505.1" cy="643.8" r="19.4"/>
		<circle class="st3" cx="435.9" cy="619.4" r="18.8"/>
		<circle class="st2" cx="427.6" cy="677.4" r="11.6"/>
		<circle class="st1" cx="490.4" cy="691.9" r="14.6"/>
		<circle class="st3" cx="486.2" cy="629.3" r="14.6"/>
		<circle class="st1" cx="491.4" cy="649.6" r="12.7"/>
		<circle class="st0" cx="446.4" cy="673.4" r="15.6"/>
		<circle class="st0" cx="505.5" cy="671.4" r="17.6"/>
		<circle class="st2" cx="471.6" cy="641.3" r="14"/>
		<circle class="st3" cx="456.1" cy="651.7" r="11.4"/>
		<circle class="st1" cx="436.2" cy="657.8" r="13.1"/>
		<circle class="st2" cx="442.2" cy="641.2" r="10.6"/>
		<circle class="st0" cx="457.8" cy="627.1" r="15.6"/>
		<circle class="st2" cx="471.2" cy="673.5" r="22"/>
		<circle class="st1" cx="444.8" cy="695.5" r="20.1"/>
		<circle class="st3" cx="470.1" cy="703.3" r="15.6"/>
		<circle class="st1" cx="459.2" cy="604.3" r="14.6"/>
		<circle class="st0" cx="480.2" cy="554.4" r="17.6"/>
		<circle class="st2" cx="469.5" cy="586.8" r="17.6"/>
		<circle class="st2" cx="499.6" cy="555" r="19.4"/>
		<circle class="st3" cx="473" cy="623.3" r="18.8"/>
		<circle class="st1" cx="496.3" cy="623.8" r="20.1"/>
		<circle class="st2" cx="530.7" cy="633.5" r="11.6"/>
		<circle class="st1" cx="547.3" cy="571.1" r="14.6"/>
		<circle class="st3" cx="484.5" cy="573.4" r="14.6"/>
		<circle class="st1" cx="505" cy="568.8" r="12.7"/>
		<circle class="st0" cx="527.3" cy="614.6" r="15.6"/>
		<circle class="st0" cx="527.2" cy="555.4" r="17.6"/>
		<circle class="st2" cx="496" cy="588.3" r="14"/>
		<circle class="st3" cx="506" cy="604.2" r="11.4"/>
		<circle class="st1" cx="511.5" cy="624.3" r="13.1"/>
		<circle class="st0" cx="513.9" cy="635.9" r="13.1"/>
		<circle class="st2" cx="495" cy="617.7" r="10.6"/>
		<circle class="st0" cx="481.4" cy="601.7" r="15.6"/>
		<circle class="st2" cx="528.2" cy="589.7" r="22"/>
		<circle class="st1" cx="549.3" cy="616.9" r="20.1"/>
		<circle class="st3" cx="558" cy="591.8" r="15.6"/>
		<circle class="st1" cx="505.4" cy="610" r="14.6"/>
		<circle class="st0" cx="555.9" cy="629.4" r="17.6"/>
		<circle class="st2" cx="523.2" cy="619.7" r="17.6"/>
		<circle class="st2" cx="556" cy="648.8" r="19.4"/>
		<circle class="st3" cx="486.8" cy="624.4" r="18.8"/>
		<circle class="st1" cx="487.1" cy="647.7" r="20.1"/>
		<circle class="st2" cx="478.5" cy="682.4" r="11.6"/>
		<circle class="st1" cx="541.3" cy="697" r="14.6"/>
		<circle class="st3" cx="537.1" cy="634.3" r="14.6"/>
		<circle class="st1" cx="542.3" cy="654.6" r="12.7"/>
		<circle class="st0" cx="497.3" cy="678.4" r="15.6"/>
		<circle class="st0" cx="556.4" cy="676.4" r="17.6"/>
		<circle class="st2" cx="522.6" cy="646.3" r="14"/>
		<circle class="st3" cx="507" cy="656.8" r="11.4"/>
		<circle class="st1" cx="487.1" cy="662.9" r="13.1"/>
		<circle class="st0" cx="475.6" cy="665.7" r="13.1"/>
		<circle class="st2" cx="493.1" cy="646.2" r="10.6"/>
		<circle class="st0" cx="508.7" cy="632.1" r="15.6"/>
		<circle class="st2" cx="522.2" cy="678.5" r="22"/>
		<g>
			<path class="st4" d="M547.2,782.9c0,0-10.7-5.1-12.7-6.9c-2.6-2.2-5.5-8.7-5.5-8.7v-60.6h-16.1v76.2"/>
			<path class="st5" d="M478.5,782.9c0,0,10.7-5.1,12.7-6.9c2.6-2.2,5.5-8.7,5.5-8.7v-60.6h16.1v76.2"/>
		</g>
		<circle class="st1" cx="495.7" cy="700.5" r="20.1"/>
		<circle class="st3" cx="521" cy="708.3" r="15.6"/>
	</g>
	<text transform="matrix(1 0 0 1 347.8723 838.4115)" class="st1 st6 st7">NODE BIKE</text>
	<text transform="matrix(1 0 0 1 290.2961 879.1429)" class="st1 st8 st9">CONNECTING THE DOTS</text>
</g>
<g>
	<circle class="st0" cx="1133.3" cy="663.2" r="17.6"/>
	<circle class="st1" cx="1091.5" cy="600.1" r="14.6"/>
	<circle class="st2" cx="1109.3" cy="609.8" r="17.6"/>
	<circle class="st3" cx="1072.9" cy="614.5" r="18.8"/>
	<circle class="st1" cx="1073.2" cy="637.8" r="20.1"/>
	<circle class="st2" cx="1064.6" cy="672.5" r="11.6"/>
	<circle class="st1" cx="1127.4" cy="687.1" r="14.6"/>
	<circle class="st3" cx="1123.2" cy="624.4" r="14.6"/>
	<circle class="st1" cx="1128.4" cy="644.7" r="12.7"/>
	<circle class="st0" cx="1083.4" cy="668.5" r="15.6"/>
	<circle class="st2" cx="1108.7" cy="636.4" r="14"/>
	<circle class="st3" cx="1093.1" cy="646.9" r="11.4"/>
	<circle class="st1" cx="1073.2" cy="653" r="13.1"/>
	<circle class="st0" cx="1061.7" cy="655.8" r="13.1"/>
	<circle class="st2" cx="1079.2" cy="636.3" r="10.6"/>
	<circle class="st0" cx="1094.8" cy="622.2" r="15.6"/>
	<circle class="st2" cx="1108.3" cy="668.6" r="22"/>
	<circle class="st1" cx="1081.8" cy="690.6" r="20.1"/>
	<circle class="st3" cx="1107.1" cy="698.4" r="15.6"/>
	<circle class="st1" cx="990.3" cy="605" r="14.6"/>
	<circle class="st0" cx="1040.7" cy="624.4" r="17.6"/>
	<circle class="st2" cx="1008" cy="614.7" r="17.6"/>
	<circle class="st2" cx="1040.8" cy="643.8" r="19.4"/>
	<circle class="st3" cx="971.7" cy="619.4" r="18.8"/>
	<circle class="st2" cx="963.3" cy="677.4" r="11.6"/>
	<circle class="st1" cx="1026.2" cy="691.9" r="14.6"/>
	<circle class="st3" cx="1022" cy="629.3" r="14.6"/>
	<circle class="st1" cx="1027.2" cy="649.6" r="12.7"/>
	<circle class="st0" cx="982.1" cy="673.4" r="15.6"/>
	<circle class="st0" cx="1041.3" cy="671.4" r="17.6"/>
	<circle class="st2" cx="1007.4" cy="641.3" r="14"/>
	<circle class="st3" cx="991.9" cy="651.7" r="11.4"/>
	<circle class="st1" cx="971.9" cy="657.8" r="13.1"/>
	<circle class="st2" cx="978" cy="641.2" r="10.6"/>
	<circle class="st0" cx="993.5" cy="627.1" r="15.6"/>
	<circle class="st2" cx="1007" cy="673.5" r="22"/>
	<circle class="st1" cx="980.5" cy="695.5" r="20.1"/>
	<circle class="st3" cx="1005.8" cy="703.3" r="15.6"/>
	<circle class="st1" cx="995" cy="604.3" r="14.6"/>
	<circle class="st0" cx="1015.9" cy="554.4" r="17.6"/>
	<circle class="st2" cx="1005.2" cy="586.8" r="17.6"/>
	<circle class="st2" cx="1035.3" cy="555" r="19.4"/>
	<circle class="st3" cx="1008.8" cy="623.3" r="18.8"/>
	<circle class="st1" cx="1032" cy="623.8" r="20.1"/>
	<circle class="st2" cx="1066.5" cy="633.5" r="11.6"/>
	<circle class="st1" cx="1083" cy="571.1" r="14.6"/>
	<circle class="st3" cx="1020.2" cy="573.4" r="14.6"/>
	<circle class="st1" cx="1040.7" cy="568.8" r="12.7"/>
	<circle class="st0" cx="1063.1" cy="614.6" r="15.6"/>
	<circle class="st0" cx="1063" cy="555.4" r="17.6"/>
	<circle class="st2" cx="1031.8" cy="588.3" r="14"/>
	<circle class="st3" cx="1041.7" cy="604.2" r="11.4"/>
	<circle class="st1" cx="1047.2" cy="624.3" r="13.1"/>
	<circle class="st0" cx="1049.6" cy="635.9" r="13.1"/>
	<circle class="st2" cx="1030.7" cy="617.7" r="10.6"/>
	<circle class="st0" cx="1017.2" cy="601.7" r="15.6"/>
	<circle class="st2" cx="1063.9" cy="589.7" r="22"/>
	<circle class="st1" cx="1085.1" cy="616.9" r="20.1"/>
	<circle class="st3" cx="1093.7" cy="591.8" r="15.6"/>
	<circle class="st1" cx="1041.2" cy="610" r="14.6"/>
	<circle class="st0" cx="1091.7" cy="629.4" r="17.6"/>
	<circle class="st2" cx="1058.9" cy="619.7" r="17.6"/>
	<circle class="st2" cx="1091.7" cy="648.8" r="19.4"/>
	<circle class="st3" cx="1022.6" cy="624.4" r="18.8"/>
	<circle class="st1" cx="1022.8" cy="647.7" r="20.1"/>
	<circle class="st2" cx="1014.2" cy="682.4" r="11.6"/>
	<circle class="st1" cx="1077.1" cy="697" r="14.6"/>
	<circle class="st3" cx="1072.9" cy="634.3" r="14.6"/>
	<circle class="st1" cx="1078.1" cy="654.6" r="12.7"/>
	<circle class="st0" cx="1033" cy="678.4" r="15.6"/>
	<circle class="st0" cx="1092.2" cy="676.4" r="17.6"/>
	<circle class="st2" cx="1058.3" cy="646.3" r="14"/>
	<circle class="st3" cx="1042.8" cy="656.8" r="11.4"/>
	<circle class="st1" cx="1022.8" cy="662.9" r="13.1"/>
	<circle class="st0" cx="1011.3" cy="665.7" r="13.1"/>
	<circle class="st2" cx="1028.9" cy="646.2" r="10.6"/>
	<circle class="st0" cx="1044.5" cy="632.1" r="15.6"/>
	<circle class="st2" cx="1057.9" cy="678.5" r="22"/>
	<g>
		<path class="st4" d="M1083,782.9c0,0-10.7-5.1-12.7-6.9c-2.6-2.2-5.5-8.7-5.5-8.7v-60.6h-16.1v76.2"/>
		<path class="st5" d="M1014.2,782.9c0,0,10.7-5.1,12.7-6.9c2.6-2.2,5.5-8.7,5.5-8.7v-60.6h16.1v76.2"/>
	</g>
	<circle class="st1" cx="1031.4" cy="700.5" r="20.1"/>
	<circle class="st3" cx="1056.7" cy="708.3" r="15.6"/>
</g>
<g>
	<text transform="matrix(1 0 0 1 1253.6179 657.618)" class="st1 st6 st7">NODE BIKE</text>
	<text transform="matrix(1 0 0 1 1196.0417 698.3494)" class="st1 st8 st9">CONNECTING THE DOTS</text>
</g>
</svg>
